# Blender v2.82 (sub 6) OBJ File: ''
# www.blender.org
mtllib frame.mtl
o Cube.032_Cube.024
v -0.151524 0.151483 0.021614
v 0.151575 0.151483 0.021614
v 0.151575 0.151483 0.000185
v -0.151524 0.151483 0.000185
v 0.151575 -0.151616 0.021614
v 0.151575 -0.151616 0.000185
v -0.151524 -0.151616 0.021614
v -0.151524 -0.151616 0.000185
vt 0.375000 0.000000
vt 0.375000 0.250000
vt 0.625000 0.250000
vt 0.625000 0.000000
vt 0.375000 0.500000
vt 0.625000 0.500000
vt 0.375000 0.750000
vt 0.625000 0.750000
vt 0.375000 1.000000
vt 0.625000 1.000000
vt 0.125000 0.500000
vt 0.125000 0.750000
vt 0.875000 0.750000
vt 0.875000 0.500000
vn 0.0000 1.0000 0.0000
vn 1.0000 0.0000 0.0000
vn 0.0000 -1.0000 0.0000
vn -1.0000 0.0000 0.0000
vn 0.0000 0.0000 1.0000
vn 0.0000 0.0000 -1.0000
usemtl None
s 1
f 1/1/1 2/2/1 3/3/1 4/4/1
f 2/2/2 5/5/2 6/6/2 3/3/2
f 5/5/3 7/7/3 8/8/3 6/6/3
f 7/7/4 1/9/4 4/10/4 8/8/4
f 2/11/5 1/12/5 7/7/5 5/5/5
f 6/6/6 8/8/6 4/13/6 3/14/6
o Cube.033_Cube.025
v -0.151524 0.151483 0.499434
v 0.151575 0.151483 0.499434
v 0.151575 0.151483 0.478005
v -0.151524 0.151483 0.478005
v 0.151575 -0.151616 0.499434
v 0.151575 -0.151616 0.478005
v -0.151524 -0.151616 0.499434
v -0.151524 -0.151616 0.478005
vt 0.375000 0.000000
vt 0.375000 0.250000
vt 0.625000 0.250000
vt 0.625000 0.000000
vt 0.375000 0.500000
vt 0.625000 0.500000
vt 0.375000 0.750000
vt 0.625000 0.750000
vt 0.375000 1.000000
vt 0.625000 1.000000
vt 0.125000 0.500000
vt 0.125000 0.750000
vt 0.875000 0.750000
vt 0.875000 0.500000
vn 0.0000 1.0000 0.0000
vn 1.0000 0.0000 0.0000
vn 0.0000 -1.0000 0.0000
vn -1.0000 0.0000 0.0000
vn 0.0000 0.0000 1.0000
vn 0.0000 0.0000 -1.0000
usemtl None
s 1
f 9/15/7 10/16/7 11/17/7 12/18/7
f 10/16/8 13/19/8 14/20/8 11/17/8
f 13/19/9 15/21/9 16/22/9 14/20/9
f 15/21/10 9/23/10 12/24/10 16/22/10
f 10/25/11 9/26/11 15/21/11 13/19/11
f 14/20/12 16/22/12 12/27/12 11/28/12
o Cube.035_Cube.002
v 0.139546 0.128671 0.005117
v 0.139546 -0.141058 0.479888
v 0.125645 -0.141058 0.479888
v 0.125645 0.128671 0.005117
v 0.125645 -0.128671 0.486925
v 0.125645 0.141058 0.012154
v 0.139546 -0.128671 0.486925
v 0.139546 0.141058 0.012154
vt 0.375000 0.000000
vt 0.625000 0.000000
vt 0.625000 0.250000
vt 0.375000 0.250000
vt 0.625000 0.500000
vt 0.375000 0.500000
vt 0.625000 0.750000
vt 0.375000 0.750000
vt 0.625000 1.000000
vt 0.375000 1.000000
vt 0.125000 0.500000
vt 0.125000 0.750000
vt 0.875000 0.500000
vt 0.875000 0.750000
vn 0.0000 -0.8695 -0.4940
vn -1.0000 0.0000 0.0000
vn 0.0000 0.8695 0.4940
vn 1.0000 0.0000 0.0000
vn 0.0000 0.4940 -0.8695
vn 0.0000 -0.4940 0.8695
usemtl None
s 1
f 17/29/13 18/30/13 19/31/13 20/32/13
f 20/32/14 19/31/14 21/33/14 22/34/14
f 22/34/15 21/33/15 23/35/15 24/36/15
f 24/36/16 23/35/16 18/37/16 17/38/16
f 20/39/17 22/34/17 24/36/17 17/40/17
f 21/33/18 19/41/18 18/42/18 23/35/18
o Cube.035_Cube.001_Cube.035_Cube.004
v -0.128671 -0.125645 0.005117
v 0.141058 -0.125645 0.479888
v 0.141058 -0.139546 0.479888
v -0.128671 -0.139546 0.005117
v 0.128671 -0.139546 0.486925
v -0.141058 -0.139546 0.012154
v 0.128671 -0.125645 0.486925
v -0.141058 -0.125645 0.012154
vt 0.375000 0.000000
vt 0.625000 0.000000
vt 0.625000 0.250000
vt 0.375000 0.250000
vt 0.625000 0.500000
vt 0.375000 0.500000
vt 0.625000 0.750000
vt 0.375000 0.750000
vt 0.625000 1.000000
vt 0.375000 1.000000
vt 0.125000 0.500000
vt 0.125000 0.750000
vt 0.875000 0.500000
vt 0.875000 0.750000
vn 0.8695 0.0000 -0.4940
vn 0.0000 -1.0000 0.0000
vn -0.8695 -0.0000 0.4940
vn -0.0000 1.0000 0.0000
vn -0.4940 0.0000 -0.8695
vn 0.4940 0.0000 0.8695
usemtl None
s 1
f 25/43/19 26/44/19 27/45/19 28/46/19
f 28/46/20 27/45/20 29/47/20 30/48/20
f 30/48/21 29/47/21 31/49/21 32/50/21
f 32/50/22 31/49/22 26/51/22 25/52/22
f 28/53/23 30/48/23 32/50/23 25/54/23
f 29/47/24 27/55/24 26/56/24 31/49/24
o Cube.035_Cube.003_Cube.035_Cube.005
v -0.139546 -0.128671 0.005117
v -0.139546 0.141058 0.479888
v -0.125645 0.141058 0.479888
v -0.125645 -0.128671 0.005117
v -0.125645 0.128671 0.486925
v -0.125645 -0.141058 0.012154
v -0.139546 0.128671 0.486925
v -0.139546 -0.141058 0.012154
vt 0.375000 0.000000
vt 0.625000 0.000000
vt 0.625000 0.250000
vt 0.375000 0.250000
vt 0.625000 0.500000
vt 0.375000 0.500000
vt 0.625000 0.750000
vt 0.375000 0.750000
vt 0.625000 1.000000
vt 0.375000 1.000000
vt 0.125000 0.500000
vt 0.125000 0.750000
vt 0.875000 0.500000
vt 0.875000 0.750000
vn 0.0000 0.8695 -0.4940
vn 1.0000 0.0000 0.0000
vn 0.0000 -0.8695 0.4940
vn -1.0000 0.0000 0.0000
vn 0.0000 -0.4940 -0.8695
vn 0.0000 0.4940 0.8695
usemtl None
s 1
f 33/57/25 34/58/25 35/59/25 36/60/25
f 36/60/26 35/59/26 37/61/26 38/62/26
f 38/62/27 37/61/27 39/63/27 40/64/27
f 40/64/28 39/63/28 34/65/28 33/66/28
f 36/67/29 38/62/29 40/64/29 33/68/29
f 37/61/30 35/69/30 34/70/30 39/63/30
o Cube.035_Cube.004_Cube.035_Cube.006
v 0.128671 -0.139546 0.005117
v -0.141058 -0.139546 0.479888
v -0.141058 -0.125645 0.479888
v 0.128671 -0.125645 0.005117
v -0.128671 -0.125645 0.486925
v 0.141058 -0.125645 0.012154
v -0.128671 -0.139546 0.486925
v 0.141058 -0.139546 0.012154
vt 0.375000 0.000000
vt 0.625000 0.000000
vt 0.625000 0.250000
vt 0.375000 0.250000
vt 0.625000 0.500000
vt 0.375000 0.500000
vt 0.625000 0.750000
vt 0.375000 0.750000
vt 0.625000 1.000000
vt 0.375000 1.000000
vt 0.125000 0.500000
vt 0.125000 0.750000
vt 0.875000 0.500000
vt 0.875000 0.750000
vn -0.8695 -0.0000 -0.4940
vn -0.0000 1.0000 0.0000
vn 0.8695 0.0000 0.4940
vn 0.0000 -1.0000 -0.0000
vn 0.4940 0.0000 -0.8695
vn -0.4940 0.0000 0.8695
usemtl None
s 1
f 41/71/31 42/72/31 43/73/31 44/74/31
f 44/74/32 43/73/32 45/75/32 46/76/32
f 46/76/33 45/75/33 47/77/33 48/78/33
f 48/78/34 47/77/34 42/79/34 41/80/34
f 44/81/35 46/76/35 48/78/35 41/82/35
f 45/75/36 43/83/36 42/84/36 47/77/36
o Cube.035_Cube.005_Cube.035_Cube.007
v -0.128671 0.139546 0.005117
v 0.141058 0.139546 0.479888
v 0.141058 0.125645 0.479888
v -0.128671 0.125645 0.005117
v 0.128671 0.125645 0.486925
v -0.141058 0.125645 0.012154
v 0.128671 0.139546 0.486925
v -0.141058 0.139546 0.012154
vt 0.375000 0.000000
vt 0.625000 0.000000
vt 0.625000 0.250000
vt 0.375000 0.250000
vt 0.625000 0.500000
vt 0.375000 0.500000
vt 0.625000 0.750000
vt 0.375000 0.750000
vt 0.625000 1.000000
vt 0.375000 1.000000
vt 0.125000 0.500000
vt 0.125000 0.750000
vt 0.875000 0.500000
vt 0.875000 0.750000
vn 0.8695 0.0000 -0.4940
vn 0.0000 -1.0000 0.0000
vn -0.8695 0.0000 0.4940
vn 0.0000 1.0000 0.0000
vn -0.4940 0.0000 -0.8695
vn 0.4940 0.0000 0.8695
usemtl None
s 1
f 49/85/37 50/86/37 51/87/37 52/88/37
f 52/88/38 51/87/38 53/89/38 54/90/38
f 54/90/39 53/89/39 55/91/39 56/92/39
f 56/92/40 55/91/40 50/93/40 49/94/40
f 52/95/41 54/90/41 56/92/41 49/96/41
f 53/89/42 51/97/42 50/98/42 55/91/42
o Cube.035_Cube.006_Cube.035_Cube.008
v 0.125645 -0.128671 0.005117
v 0.125645 0.141058 0.479888
v 0.139546 0.141058 0.479888
v 0.139546 -0.128671 0.005117
v 0.139546 0.128671 0.486925
v 0.139546 -0.141058 0.012154
v 0.125645 0.128671 0.486925
v 0.125645 -0.141058 0.012154
vt 0.375000 0.000000
vt 0.625000 0.000000
vt 0.625000 0.250000
vt 0.375000 0.250000
vt 0.625000 0.500000
vt 0.375000 0.500000
vt 0.625000 0.750000
vt 0.375000 0.750000
vt 0.625000 1.000000
vt 0.375000 1.000000
vt 0.125000 0.500000
vt 0.125000 0.750000
vt 0.875000 0.500000
vt 0.875000 0.750000
vn 0.0000 0.8695 -0.4940
vn 1.0000 0.0000 0.0000
vn 0.0000 -0.8695 0.4940
vn -1.0000 -0.0000 -0.0000
vn 0.0000 -0.4940 -0.8695
vn 0.0000 0.4940 0.8695
usemtl None
s 1
f 57/99/43 58/100/43 59/101/43 60/102/43
f 60/102/44 59/101/44 61/103/44 62/104/44
f 62/104/45 61/103/45 63/105/45 64/106/45
f 64/106/46 63/105/46 58/107/46 57/108/46
f 60/109/47 62/104/47 64/106/47 57/110/47
f 61/103/48 59/111/48 58/112/48 63/105/48
o Cube.035_Cube.007_Cube.035_Cube.009
v 0.128671 0.125645 0.005117
v -0.141058 0.125645 0.479888
v -0.141058 0.139546 0.479888
v 0.128671 0.139546 0.005117
v -0.128671 0.139546 0.486925
v 0.141058 0.139546 0.012154
v -0.128671 0.125645 0.486925
v 0.141058 0.125645 0.012154
vt 0.375000 0.000000
vt 0.625000 0.000000
vt 0.625000 0.250000
vt 0.375000 0.250000
vt 0.625000 0.500000
vt 0.375000 0.500000
vt 0.625000 0.750000
vt 0.375000 0.750000
vt 0.625000 1.000000
vt 0.375000 1.000000
vt 0.125000 0.500000
vt 0.125000 0.750000
vt 0.875000 0.500000
vt 0.875000 0.750000
vn -0.8695 -0.0000 -0.4940
vn -0.0000 1.0000 -0.0000
vn 0.8695 0.0000 0.4940
vn 0.0000 -1.0000 -0.0000
vn 0.4940 0.0000 -0.8695
vn -0.4940 0.0000 0.8695
usemtl None
s 1
f 65/113/49 66/114/49 67/115/49 68/116/49
f 68/116/50 67/115/50 69/117/50 70/118/50
f 70/118/51 69/117/51 71/119/51 72/120/51
f 72/120/52 71/119/52 66/121/52 65/122/52
f 68/123/53 70/118/53 72/120/53 65/124/53
f 69/117/54 67/125/54 66/126/54 71/119/54
o Cube.035_Cube.008_Cube.035_Cube.010
v -0.125645 0.128671 0.005117
v -0.125645 -0.141058 0.479888
v -0.139546 -0.141058 0.479888
v -0.139546 0.128671 0.005117
v -0.139546 -0.128671 0.486925
v -0.139546 0.141058 0.012154
v -0.125645 -0.128671 0.486925
v -0.125645 0.141058 0.012154
vt 0.375000 0.000000
vt 0.625000 0.000000
vt 0.625000 0.250000
vt 0.375000 0.250000
vt 0.625000 0.500000
vt 0.375000 0.500000
vt 0.625000 0.750000
vt 0.375000 0.750000
vt 0.625000 1.000000
vt 0.375000 1.000000
vt 0.125000 0.500000
vt 0.125000 0.750000
vt 0.875000 0.500000
vt 0.875000 0.750000
vn 0.0000 -0.8695 -0.4940
vn -1.0000 -0.0000 0.0000
vn -0.0000 0.8695 0.4940
vn 1.0000 0.0000 -0.0000
vn -0.0000 0.4940 -0.8695
vn 0.0000 -0.4940 0.8695
usemtl None
s 1
f 73/127/55 74/128/55 75/129/55 76/130/55
f 76/130/56 75/129/56 77/131/56 78/132/56
f 78/132/57 77/131/57 79/133/57 80/134/57
f 80/134/58 79/133/58 74/135/58 73/136/58
f 76/137/59 78/132/59 80/134/59 73/138/59
f 77/131/60 75/139/60 74/140/60 79/133/60
