# Blender v2.82 (sub 6) OBJ File: ''
# www.blender.org
mtllib table.mtl
o Plane
v 0.250000 0.500000 0.579998
v 0.250000 -0.500000 0.579998
v -0.250000 -0.500000 0.579998
v -0.250000 0.500000 0.579998
v 0.250000 0.500000 0.599998
v -0.250000 0.500000 0.599998
v -0.250000 -0.500000 0.599998
v 0.250000 -0.500000 0.599998
vt 0.000000 0.000000
vt 0.000000 1.000000
vt 1.000000 1.000000
vt 1.000000 0.000000
vt 0.000000 0.000000
vt 1.000000 0.000000
vt 1.000000 1.000000
vt 0.000000 1.000000
vn 0.0000 0.0000 -1.0000
vn 0.0000 0.0000 1.0000
vn -1.0000 0.0000 0.0000
vn 1.0000 0.0000 0.0000
vn 0.0000 -1.0000 0.0000
vn 0.0000 1.0000 0.0000
usemtl Wood
s 1
f 1/1/1 2/2/1 3/3/1 4/4/1
f 5/5/2 6/6/2 7/7/2 8/8/2
f 4/4/3 3/3/3 7/7/3 6/6/3
f 2/2/4 1/1/4 5/5/4 8/8/4
f 3/3/5 2/2/5 8/8/5 7/7/5
f 1/1/6 4/4/6 6/6/6 5/5/6
o Plane.002
v -0.182408 0.445070 0.580040
v -0.217592 0.445070 0.580040
v -0.217592 -0.445070 0.580040
v -0.182408 -0.445070 0.580040
v -0.182408 0.445070 0.547987
v -0.182408 -0.445070 0.547987
v -0.217592 -0.445070 0.547987
v -0.217592 0.445070 0.547987
vt 0.000000 0.000000
vt 1.000000 0.000000
vt 1.000000 1.000000
vt 0.000000 1.000000
vt 0.000000 0.000000
vt 0.000000 1.000000
vt 1.000000 1.000000
vt 1.000000 0.000000
vn 0.0000 0.0000 1.0000
vn 0.0000 0.0000 -1.0000
vn 0.0000 1.0000 0.0000
vn -1.0000 0.0000 0.0000
vn 1.0000 0.0000 0.0000
vn 0.0000 -1.0000 0.0000
usemtl Aluminum
s 1
f 9/9/7 10/10/7 11/11/7 12/12/7
f 13/13/8 14/14/8 15/15/8 16/16/8
f 9/9/9 13/13/9 16/16/9 10/10/9
f 10/10/10 16/16/10 15/15/10 11/11/10
f 12/12/11 14/14/11 13/13/11 9/9/11
f 11/11/12 15/15/12 14/14/12 12/12/12
o Plane.003
v 0.217592 0.445070 0.580040
v 0.182408 0.445070 0.580040
v 0.182408 -0.445070 0.580040
v 0.217592 -0.445070 0.580040
v 0.217592 0.445070 0.547987
v 0.217592 -0.445070 0.547987
v 0.182408 -0.445070 0.547987
v 0.182408 0.445070 0.547987
vt 0.000000 0.000000
vt 1.000000 0.000000
vt 1.000000 1.000000
vt 0.000000 1.000000
vt 0.000000 0.000000
vt 0.000000 1.000000
vt 1.000000 1.000000
vt 1.000000 0.000000
vn 0.0000 0.0000 1.0000
vn 0.0000 0.0000 -1.0000
vn 0.0000 1.0000 0.0000
vn -1.0000 0.0000 0.0000
vn 1.0000 0.0000 0.0000
vn 0.0000 -1.0000 0.0000
usemtl Aluminum
s 1
f 17/17/13 18/18/13 19/19/13 20/20/13
f 21/21/14 22/22/14 23/23/14 24/24/14
f 17/17/15 21/21/15 24/24/15 18/18/15
f 18/18/16 24/24/16 23/23/16 19/19/16
f 20/20/17 22/22/17 21/21/17 17/17/17
f 19/19/18 23/23/18 22/22/18 20/20/18
o Plane.004
v -0.222535 -0.442408 0.580040
v -0.222535 -0.477592 0.580040
v 0.222535 -0.477592 0.580040
v 0.222535 -0.442408 0.580040
v -0.222535 -0.442408 0.547987
v 0.222535 -0.442408 0.547987
v 0.222535 -0.477592 0.547987
v -0.222535 -0.477592 0.547987
vt 0.000000 0.000000
vt 1.000000 0.000000
vt 1.000000 1.000000
vt 0.000000 1.000000
vt 0.000000 0.000000
vt 0.000000 1.000000
vt 1.000000 1.000000
vt 1.000000 0.000000
vn 0.0000 0.0000 1.0000
vn 0.0000 0.0000 -1.0000
vn -1.0000 0.0000 0.0000
vn 0.0000 -1.0000 0.0000
vn 0.0000 1.0000 0.0000
vn 1.0000 0.0000 0.0000
usemtl Aluminum
s 1
f 25/25/19 26/26/19 27/27/19 28/28/19
f 29/29/20 30/30/20 31/31/20 32/32/20
f 25/25/21 29/29/21 32/32/21 26/26/21
f 26/26/22 32/32/22 31/31/22 27/27/22
f 28/28/23 30/30/23 29/29/23 25/25/23
f 27/27/24 31/31/24 30/30/24 28/28/24
o Plane.005
v -0.222535 0.477592 0.580040
v -0.222535 0.442408 0.580040
v 0.222535 0.442408 0.580040
v 0.222535 0.477592 0.580040
v -0.222535 0.477592 0.547987
v 0.222535 0.477592 0.547987
v 0.222535 0.442408 0.547987
v -0.222535 0.442408 0.547987
vt 0.000000 0.000000
vt 1.000000 0.000000
vt 1.000000 1.000000
vt 0.000000 1.000000
vt 0.000000 0.000000
vt 0.000000 1.000000
vt 1.000000 1.000000
vt 1.000000 0.000000
vn 0.0000 0.0000 1.0000
vn 0.0000 0.0000 -1.0000
vn -1.0000 0.0000 0.0000
vn 0.0000 -1.0000 0.0000
vn 0.0000 1.0000 0.0000
vn 1.0000 0.0000 0.0000
usemtl Aluminum
s 1
f 33/33/25 34/34/25 35/35/25 36/36/25
f 37/37/26 38/38/26 39/39/26 40/40/26
f 33/33/27 37/37/27 40/40/27 34/34/27
f 34/34/28 40/40/28 39/39/28 35/35/28
f 36/36/29 38/38/29 37/37/29 33/33/29
f 35/35/30 39/39/30 38/38/30 36/36/30
o Plane.006_Plane.007
v 0.014921 -0.445079 0.547590
v -0.014921 -0.445079 0.547590
v -0.014921 -0.474921 0.547590
v 0.014921 -0.474921 0.547590
v 0.014921 -0.445079 0.047590
v 0.014921 -0.474921 0.047590
v -0.014921 -0.474921 0.047590
v -0.014921 -0.445079 0.047590
vt 0.000000 0.000000
vt 1.000000 0.000000
vt 1.000000 1.000000
vt 0.000000 1.000000
vt 0.000000 0.000000
vt 0.000000 1.000000
vt 1.000000 1.000000
vt 1.000000 0.000000
vn 0.0000 0.0000 1.0000
vn 0.0000 0.0000 -1.0000
vn -1.0000 0.0000 0.0000
vn 1.0000 0.0000 0.0000
vn 0.0000 -1.0000 0.0000
vn 0.0000 1.0000 0.0000
usemtl Aluminum
s 1
f 41/41/31 42/42/31 43/43/31 44/44/31
f 45/45/32 46/46/32 47/47/32 48/48/32
f 42/42/33 48/48/33 47/47/33 43/43/33
f 44/44/34 46/46/34 45/45/34 41/41/34
f 43/43/35 47/47/35 46/46/35 44/44/35
f 41/41/36 45/45/36 48/48/36 42/42/36
o Plane.007_Plane.008
v 0.014921 0.474921 0.547590
v -0.014921 0.474921 0.547590
v -0.014921 0.445079 0.547590
v 0.014921 0.445079 0.547590
v 0.014921 0.474921 0.047590
v 0.014921 0.445079 0.047590
v -0.014921 0.445079 0.047590
v -0.014921 0.474921 0.047590
vt 0.000000 0.000000
vt 1.000000 0.000000
vt 1.000000 1.000000
vt 0.000000 1.000000
vt 0.000000 0.000000
vt 0.000000 1.000000
vt 1.000000 1.000000
vt 1.000000 0.000000
vn 0.0000 0.0000 1.0000
vn 0.0000 0.0000 -1.0000
vn -1.0000 0.0000 0.0000
vn 1.0000 0.0000 0.0000
vn 0.0000 -1.0000 0.0000
vn 0.0000 1.0000 0.0000
usemtl Aluminum
s 1
f 49/49/37 50/50/37 51/51/37 52/52/37
f 53/53/38 54/54/38 55/55/38 56/56/38
f 50/50/39 56/56/39 55/55/39 51/51/39
f 52/52/40 54/54/40 53/53/40 49/49/40
f 51/51/41 55/55/41 54/54/41 52/52/41
f 49/49/42 53/53/42 56/56/42 50/50/42
o Plane.001_Plane.010
v 0.009012 0.445070 0.290757
v -0.009012 0.445070 0.290757
v -0.009012 -0.445070 0.290757
v 0.009012 -0.445070 0.290757
v 0.009012 0.445070 0.229519
v 0.009012 -0.445070 0.229519
v -0.009012 -0.445070 0.229519
v -0.009012 0.445070 0.229519
vt 0.000000 0.000000
vt 1.000000 0.000000
vt 1.000000 1.000000
vt 0.000000 1.000000
vt 0.000000 0.000000
vt 0.000000 1.000000
vt 1.000000 1.000000
vt 1.000000 0.000000
vn 0.0000 0.0000 1.0000
vn 0.0000 0.0000 -1.0000
vn 0.0000 1.0000 0.0000
vn -1.0000 0.0000 0.0000
vn 1.0000 0.0000 0.0000
vn 0.0000 -1.0000 0.0000
usemtl Aluminum
s 1
f 57/57/43 58/58/43 59/59/43 60/60/43
f 61/61/44 62/62/44 63/63/44 64/64/44
f 57/57/45 61/61/45 64/64/45 58/58/45
f 58/58/46 64/64/46 63/63/46 59/59/46
f 60/60/47 62/62/47 61/61/47 57/57/47
f 59/59/48 63/63/48 62/62/48 60/60/48
o Plane.008_Plane.011
v -0.263458 -0.436743 0.048704
v -0.263458 -0.483257 0.048704
v 0.263458 -0.483257 0.048704
v 0.263458 -0.436743 0.048704
v -0.263458 -0.436743 0.000010
v 0.263458 -0.436743 0.000010
v 0.263458 -0.483257 0.000010
v -0.263458 -0.483257 0.000010
vt 0.000000 0.000000
vt 1.000000 0.000000
vt 1.000000 1.000000
vt 0.000000 1.000000
vt 0.000000 0.000000
vt 0.000000 1.000000
vt 1.000000 1.000000
vt 1.000000 0.000000
vn 0.0000 0.0000 1.0000
vn 0.0000 0.0000 -1.0000
vn -1.0000 0.0000 0.0000
vn 0.0000 -1.0000 0.0000
vn 0.0000 1.0000 0.0000
vn 1.0000 0.0000 0.0000
usemtl Aluminum
s 1
f 65/65/49 66/66/49 67/67/49 68/68/49
f 69/69/50 70/70/50 71/71/50 72/72/50
f 65/65/51 69/69/51 72/72/51 66/66/51
f 66/66/52 72/72/52 71/71/52 67/67/52
f 68/68/53 70/70/53 69/69/53 65/65/53
f 67/67/54 71/71/54 70/70/54 68/68/54
o Plane.009_Plane.011
v -0.263458 0.483257 0.048704
v -0.263458 0.436743 0.048704
v 0.263458 0.436743 0.048704
v 0.263458 0.483257 0.048704
v -0.263458 0.483257 0.000010
v 0.263458 0.483257 0.000010
v 0.263458 0.436743 0.000010
v -0.263458 0.436743 0.000010
vt 0.000000 0.000000
vt 1.000000 0.000000
vt 1.000000 1.000000
vt 0.000000 1.000000
vt 0.000000 0.000000
vt 0.000000 1.000000
vt 1.000000 1.000000
vt 1.000000 0.000000
vn 0.0000 0.0000 1.0000
vn 0.0000 0.0000 -1.0000
vn -1.0000 0.0000 0.0000
vn 0.0000 -1.0000 0.0000
vn 0.0000 1.0000 0.0000
vn 1.0000 0.0000 0.0000
usemtl Aluminum
s 1
f 73/73/55 74/74/55 75/75/55 76/76/55
f 77/77/56 78/78/56 79/79/56 80/80/56
f 73/73/57 77/77/57 80/80/57 74/74/57
f 74/74/58 80/80/58 79/79/58 75/75/58
f 76/76/59 78/78/59 77/77/59 73/73/59
f 75/75/60 79/79/60 78/78/60 76/76/60
